{
  "accessors": [
    {
      "bufferView": 1,
      "componentType": 5126,
      "count": 65532,
      "max": [
        1.9998899698257446,
        1.844480037689209,
        1.3337899446487427
      ],
      "min": [
        0.6990799903869629,
        -0.46772998571395874,
        -1.2290799617767334
      ],
      "type": "VEC3"
    },
    {
      "bufferView": 1,
      "byteOffset": 786384,
      "componentType": 5126,
      "count": 65532,
      "max": [
        0.986966609954834,
        0.9996015429496765,
        0.9997019171714783
      ],
      "min": [
        -1.0,
        -0.9999340772628784,
        -0.999508798122406
      ],
      "type": "VEC3"
    },
    {
      "bufferView": 2,
      "componentType": 5126,
      "count": 65532,
      "max": [
        1.0,
        0.9960784316062927,
        0.9960784316062927,
        1.0
      ],
      "min": [
        0.0,
        0.07058823853731155,
        0.0,
        1.0
      ],
      "type": "VEC4"
    },
    {
      "bufferView": 0,
      "componentType": 5125,
      "count": 373002,
      "type": "SCALAR"
    },
    {
      "bufferView": 1,
      "byteOffset": 1572768,
      "componentType": 5126,
      "count": 65532,
      "max": [
        1.9716099500656128,
        1.3280600309371948,
        1.0750999450683594
      ],
      "min": [
        -1.2322100400924683,
        -1.269670009613037,
        -1.9998899698257446
      ],
      "type": "VEC3"
    },
    {
      "bufferView": 1,
      "byteOffset": 2359152,
      "componentType": 5126,
      "count": 65532,
      "max": [
        0.9996787905693054,
        0.9997742772102356,
        1.0
      ],
      "min": [
        -0.9999513030052185,
        -0.9993265271186829,
        -0.990234375
      ],
      "type": "VEC3"
    },
    {
      "bufferView": 2,
      "byteOffset": 1048512,
      "componentType": 5126,
      "count": 65532,
      "max": [
        0.9960784316062927,
        0.9960784316062927,
        0.9960784316062927,
        1.0
      ],
      "min": [
        0.0,
        0.0784313753247261,
        0.0,
        1.0
      ],
      "type": "VEC4"
    },
    {
      "bufferView": 0,
      "byteOffset": 1492008,
      "componentType": 5125,
      "count": 370023,
      "type": "SCALAR"
    },
    {
      "bufferView": 1,
      "byteOffset": 3145536,
      "componentType": 5126,
      "count": 65532,
      "max": [
        1.0861799716949463,
        0.32076001167297363,
        1.459190011024475
      ],
      "min": [
        -1.9273300170898438,
        -1.9239599704742432,
        -1.8691200017929077
      ],
      "type": "VEC3"
    },
    {
      "bufferView": 1,
      "byteOffset": 3931920,
      "componentType": 5126,
      "count": 65532,
      "max": [
        0.9999924898147583,
        0.9998999834060669,
        0.9999018907546997
      ],
      "min": [
        -0.9995083212852478,
        -0.9985007047653198,
        -0.9996218085289001
      ],
      "type": "VEC3"
    },
    {
      "bufferView": 2,
      "byteOffset": 2097024,
      "componentType": 5126,
      "count": 65532,
      "max": [
        0.9960784316062927,
        0.9960784316062927,
        1.0,
        1.0
      ],
      "min": [
        0.0,
        0.01568627543747425,
        0.0,
        1.0
      ],
      "type": "VEC4"
    },
    {
      "bufferView": 0,
      "byteOffset": 2972100,
      "componentType": 5125,
      "count": 369684,
      "type": "SCALAR"
    },
    {
      "bufferView": 1,
      "byteOffset": 4718304,
      "componentType": 5126,
      "count": 65532,
      "max": [
        0.3261899948120117,
        0.31935998797416687,
        1.8489799499511719
      ],
      "min": [
        -1.9392800331115723,
        -1.9603500366210938,
        -0.7873299717903137
      ],
      "type": "VEC3"
    },
    {
      "bufferView": 1,
      "byteOffset": 5504688,
      "componentType": 5126,
      "count": 65532,
      "max": [
        0.9998092651367188,
        0.9999822378158569,
        0.9989065527915955
      ],
      "min": [
        -0.9975367784500122,
        -0.9967814087867737,
        -0.9996004700660706
      ],
      "type": "VEC3"
    },
    {
      "bufferView": 2,
      "byteOffset": 3145536,
      "componentType": 5126,
      "count": 65532,
      "max": [
        1.0,
        0.9960784316062927,
        0.9960784316062927,
        1.0
      ],
      "min": [
        0.0,
        0.007843137718737125,
        0.0,
        1.0
      ],
      "type": "VEC4"
    },
    {
      "bufferView": 0,
      "byteOffset": 4450836,
      "componentType": 5125,
      "count": 364863,
      "type": "SCALAR"
    },
    {
      "bufferView": 1,
      "byteOffset": 6291072,
      "componentType": 5126,
      "count": 65532,
      "max": [
        0.4421299993991852,
        1.2338000535964966,
        1.9998899698257446
      ],
      "min": [
        -1.9998899698257446,
        -1.8008400201797485,
        -1.022279977798462
      ],
      "type": "VEC3"
    },
    {
      "bufferView": 1,
      "byteOffset": 7077456,
      "componentType": 5126,
      "count": 65532,
      "max": [
        1.0,
        0.9999340772628784,
        0.9995308518409729
      ],
      "min": [
        -0.9996787905693054,
        -0.9997742772102356,
        -1.0
      ],
      "type": "VEC3"
    },
    {
      "bufferView": 2,
      "byteOffset": 4194048,
      "componentType": 5126,
      "count": 65532,
      "max": [
        1.0,
        0.9960784316062927,
        0.9960784316062927,
        1.0
      ],
      "min": [
        0.0,
        0.054901961237192154,
        0.0,
        1.0
      ],
      "type": "VEC4"
    },
    {
      "bufferView": 0,
      "byteOffset": 5910288,
      "componentType": 5125,
      "count": 337953,
      "type": "SCALAR"
    },
    {
      "bufferView": 1,
      "byteOffset": 7863840,
      "componentType": 5126,
      "count": 65532,
      "max": [
        1.7318400144577026,
        1.8932100534439087,
        1.999400019645691
      ],
      "min": [
        -1.9043099880218506,
        -1.495959997177124,
        -1.0354000329971313
      ],
      "type": "VEC3"
    },
    {
      "bufferView": 1,
      "byteOffset": 8650224,
      "componentType": 5126,
      "count": 65532,
      "max": [
        0.9999740719795227,
        0.9985007047653198,
        0.9993273615837097
      ],
      "min": [
        -0.9999924898147583,
        -0.9997596144676208,
        -0.9999018907546997
      ],
      "type": "VEC3"
    },
    {
      "bufferView": 2,
      "byteOffset": 5242560,
      "componentType": 5126,
      "count": 65532,
      "max": [
        0.9960784316062927,
        0.9960784316062927,
        0.9960784316062927,
        1.0
      ],
      "min": [
        0.0,
        0.08627451211214066,
        0.0,
        1.0
      ],
      "type": "VEC4"
    },
    {
      "bufferView": 0,
      "byteOffset": 7262100,
      "componentType": 5125,
      "count": 343743,
      "type": "SCALAR"
    },
    {
      "bufferView": 1,
      "byteOffset": 9436608,
      "componentType": 5126,
      "count": 65533,
      "max": [
        0.4906199872493744,
        1.9998899698257446,
        1.2603399753570557
      ],
      "min": [
        -1.9994800090789795,
        0.0,
        -1.6074399948120117
      ],
      "type": "VEC3"
    },
    {
      "bufferView": 1,
      "byteOffset": 10223004,
      "componentType": 5126,
      "count": 65533,
      "max": [
        0.9999740719795227,
        0.9980269074440002,
        0.9997945427894592
      ],
      "min": [
        -0.9996505975723267,
        -1.0,
        -0.9986639618873596
      ],
      "type": "VEC3"
    },
    {
      "bufferView": 2,
      "byteOffset": 6291072,
      "componentType": 5126,
      "count": 65533,
      "max": [
        1.0,
        0.9960784316062927,
        0.9960784316062927,
        1.0
      ],
      "min": [
        0.0,
        0.08627451211214066,
        0.0,
        1.0
      ],
      "type": "VEC4"
    },
    {
      "bufferView": 0,
      "byteOffset": 8637072,
      "componentType": 5125,
      "count": 346137,
      "type": "SCALAR"
    },
    {
      "bufferView": 1,
      "byteOffset": 11009400,
      "componentType": 5126,
      "count": 65532,
      "max": [
        1.580199956893921,
        1.9998699426651,
        1.7223000526428223
      ],
      "min": [
        -1.7097899913787842,
        0.025350000709295273,
        -1.9741300344467163
      ],
      "type": "VEC3"
    },
    {
      "bufferView": 1,
      "byteOffset": 11795784,
      "componentType": 5126,
      "count": 65532,
      "max": [
        0.9997759461402893,
        0.9962462782859802,
        0.9997945427894592
      ],
      "min": [
        -0.9988659620285034,
        -0.9999980926513672,
        -0.9989065527915955
      ],
      "type": "VEC3"
    },
    {
      "bufferView": 2,
      "byteOffset": 7339600,
      "componentType": 5126,
      "count": 65532,
      "max": [
        0.9960784316062927,
        0.9960784316062927,
        1.0,
        1.0
      ],
      "min": [
        0.0,
        0.0784313753247261,
        0.0,
        1.0
      ],
      "type": "VEC4"
    },
    {
      "bufferView": 0,
      "byteOffset": 10021620,
      "componentType": 5125,
      "count": 324321,
      "type": "SCALAR"
    },
    {
      "bufferView": 1,
      "byteOffset": 12582168,
      "componentType": 5126,
      "count": 65532,
      "max": [
        1.7312400341033936,
        1.9992599487304688,
        0.40443000197410583
      ],
      "min": [
        -1.9201600551605225,
        -1.8793200254440308,
        -1.9994800090789795
      ],
      "type": "VEC3"
    },
    {
      "bufferView": 1,
      "byteOffset": 13368552,
      "componentType": 5126,
      "count": 65532,
      "max": [
        0.9999067783355713,
        0.9997742772102356,
        0.9999464154243469
      ],
      "min": [
        -0.9994403719902039,
        -0.9999822378158569,
        -0.9990187883377075
      ],
      "type": "VEC3"
    },
    {
      "bufferView": 2,
      "byteOffset": 8388112,
      "componentType": 5126,
      "count": 65532,
      "max": [
        1.0,
        0.9960784316062927,
        0.9960784316062927,
        1.0
      ],
      "min": [
        0.0,
        0.01568627543747425,
        0.0,
        1.0
      ],
      "type": "VEC4"
    },
    {
      "bufferView": 0,
      "byteOffset": 11318904,
      "componentType": 5125,
      "count": 305775,
      "type": "SCALAR"
    },
    {
      "bufferView": 1,
      "byteOffset": 14154936,
      "componentType": 5126,
      "count": 65532,
      "max": [
        1.9072500467300415,
        0.6327999830245972,
        1.96451997756958
      ],
      "min": [
        -0.8307200074195862,
        -1.962030053138733,
        -0.6121900081634521
      ],
      "type": "VEC3"
    },
    {
      "bufferView": 1,
      "byteOffset": 14941320,
      "componentType": 5126,
      "count": 65532,
      "max": [
        0.9976029992103577,
        0.9999645352363586,
        0.9990187883377075
      ],
      "min": [
        -0.9999740719795227,
        -0.9994832277297974,
        -0.9997816681861877
      ],
      "type": "VEC3"
    },
    {
      "bufferView": 2,
      "byteOffset": 9436624,
      "componentType": 5126,
      "count": 65532,
      "max": [
        0.9960784316062927,
        0.9960784316062927,
        0.9960784316062927,
        1.0
      ],
      "min": [
        0.0,
        0.007843137718737125,
        0.0,
        1.0
      ],
      "type": "VEC4"
    },
    {
      "bufferView": 0,
      "byteOffset": 12542004,
      "componentType": 5125,
      "count": 358920,
      "type": "SCALAR"
    },
    {
      "bufferView": 1,
      "byteOffset": 15727704,
      "componentType": 5126,
      "count": 65532,
      "max": [
        1.772029995918274,
        -0.03175000101327896,
        1.678760051727295
      ],
      "min": [
        -1.011489987373352,
        -1.9998899698257446,
        -1.7223000526428223
      ],
      "type": "VEC3"
    },
    {
      "bufferView": 1,
      "byteOffset": 16514088,
      "componentType": 5126,
      "count": 65532,
      "max": [
        0.9996505975723267,
        1.0,
        0.9989065527915955
      ],
      "min": [
        -0.9996340274810791,
        -0.9966456890106201,
        -0.9997945427894592
      ],
      "type": "VEC3"
    },
    {
      "bufferView": 2,
      "byteOffset": 10485136,
      "componentType": 5126,
      "count": 65532,
      "max": [
        0.9960784316062927,
        0.9960784316062927,
        0.9960784316062927,
        1.0
      ],
      "min": [
        0.0,
        0.003921568859368563,
        0.0,
        1.0
      ],
      "type": "VEC4"
    },
    {
      "bufferView": 0,
      "byteOffset": 13977684,
      "componentType": 5125,
      "count": 335616,
      "type": "SCALAR"
    },
    {
      "bufferView": 1,
      "byteOffset": 17300472,
      "componentType": 5126,
      "count": 26437,
      "max": [
        1.9994800090789795,
        1.0249799489974976,
        1.999400019645691
      ],
      "min": [
        -1.1849700212478638,
        -1.7290600538253784,
        -1.0347299575805664
      ],
      "type": "VEC3"
    },
    {
      "bufferView": 1,
      "byteOffset": 17617716,
      "componentType": 5126,
      "count": 26437,
      "max": [
        0.9963720440864563,
        0.9993565678596497,
        0.9996131062507629
      ],
      "min": [
        -0.99997878074646,
        -0.9997742772102356,
        -0.9997603297233582
      ],
      "type": "VEC3"
    },
    {
      "bufferView": 2,
      "byteOffset": 11533648,
      "componentType": 5126,
      "count": 26437,
      "max": [
        1.0,
        0.9960784316062927,
        0.9960784316062927,
        1.0
      ],
      "min": [
        0.0,
        0.05882352963089943,
        0.0,
        1.0
      ],
      "type": "VEC4"
    },
    {
      "bufferView": 0,
      "byteOffset": 15320148,
      "componentType": 5125,
      "count": 102123,
      "type": "SCALAR"
    }
  ],
  "asset": {
    "extras": {
      "author": "Aiekick (https://sketchfab.com/Aiekick)",
      "license": "CC-BY-4.0 (http://creativecommons.org/licenses/by/4.0/)",
      "source": "https://sketchfab.com/3d-models/geodesic-tiling-mesh-colored-2d18efdfbdcb4cc581af9b560b994015",
      "title": "Geodesic Tiling Mesh colored"
    },
    "generator": "Sketchfab-12.64.0",
    "version": "2.0"
  },
  "bufferViews": [
    {
      "buffer": 0,
      "byteLength": 15728640,
      "name": "floatBufferViews",
      "target": 34963
    },
    {
      "buffer": 0,
      "byteLength": 17934960,
      "byteOffset": 15728640,
      "byteStride": 12,
      "name": "floatBufferViews",
      "target": 34962
    },
    {
      "buffer": 0,
      "byteLength": 11956640,
      "byteOffset": 33663600,
      "byteStride": 16,
      "name": "floatBufferViews",
      "target": 34962
    }
  ],
  "buffers": [
    {
      "byteLength": 45620240,
      "uri": "scene.bin"
    }
  ],
  "materials": [
    {
      "doubleSided": true,
      "name": "Scene_-_Root",
      "pbrMetallicRoughness": {
        "metallicFactor": 0.0,
        "roughnessFactor": 0.6
      }
    }
  ],
  "meshes": [
    {
      "name": "Object_0",
      "primitives": [
        {
          "attributes": {
            "COLOR_0": 2,
            "NORMAL": 1,
            "POSITION": 0
          },
          "indices": 3,
          "material": 0,
          "mode": 4
        }
      ]
    },
    {
      "name": "Object_1",
      "primitives": [
        {
          "attributes": {
            "COLOR_0": 6,
            "NORMAL": 5,
            "POSITION": 4
          },
          "indices": 7,
          "material": 0,
          "mode": 4
        }
      ]
    },
    {
      "name": "Object_2",
      "primitives": [
        {
          "attributes": {
            "COLOR_0": 10,
            "NORMAL": 9,
            "POSITION": 8
          },
          "indices": 11,
          "material": 0,
          "mode": 4
        }
      ]
    },
    {
      "name": "Object_3",
      "primitives": [
        {
          "attributes": {
            "COLOR_0": 14,
            "NORMAL": 13,
            "POSITION": 12
          },
          "indices": 15,
          "material": 0,
          "mode": 4
        }
      ]
    },
    {
      "name": "Object_4",
      "primitives": [
        {
          "attributes": {
            "COLOR_0": 18,
            "NORMAL": 17,
            "POSITION": 16
          },
          "indices": 19,
          "material": 0,
          "mode": 4
        }
      ]
    },
    {
      "name": "Object_5",
      "primitives": [
        {
          "attributes": {
            "COLOR_0": 22,
            "NORMAL": 21,
            "POSITION": 20
          },
          "indices": 23,
          "material": 0,
          "mode": 4
        }
      ]
    },
    {
      "name": "Object_6",
      "primitives": [
        {
          "attributes": {
            "COLOR_0": 26,
            "NORMAL": 25,
            "POSITION": 24
          },
          "indices": 27,
          "material": 0,
          "mode": 4
        }
      ]
    },
    {
      "name": "Object_7",
      "primitives": [
        {
          "attributes": {
            "COLOR_0": 30,
            "NORMAL": 29,
            "POSITION": 28
          },
          "indices": 31,
          "material": 0,
          "mode": 4
        }
      ]
    },
    {
      "name": "Object_8",
      "primitives": [
        {
          "attributes": {
            "COLOR_0": 34,
            "NORMAL": 33,
            "POSITION": 32
          },
          "indices": 35,
          "material": 0,
          "mode": 4
        }
      ]
    },
    {
      "name": "Object_9",
      "primitives": [
        {
          "attributes": {
            "COLOR_0": 38,
            "NORMAL": 37,
            "POSITION": 36
          },
          "indices": 39,
          "material": 0,
          "mode": 4
        }
      ]
    },
    {
      "name": "Object_10",
      "primitives": [
        {
          "attributes": {
            "COLOR_0": 42,
            "NORMAL": 41,
            "POSITION": 40
          },
          "indices": 43,
          "material": 0,
          "mode": 4
        }
      ]
    },
    {
      "name": "Object_11",
      "primitives": [
        {
          "attributes": {
            "COLOR_0": 46,
            "NORMAL": 45,
            "POSITION": 44
          },
          "indices": 47,
          "material": 0,
          "mode": 4
        }
      ]
    }
  ],
  "nodes": [
    {
      "children": [
        1
      ],
      "matrix": [
        1.0,
        0.0,
        0.0,
        0.0,
        0.0,
        2.220446049250313e-16,
        -1.0,
        0.0,
        0.0,
        1.0,
        2.220446049250313e-16,
        0.0,
        0.0,
        0.0,
        0.0,
        1.0
      ],
      "name": "Sketchfab_model"
    },
    {
      "children": [
        2,
        3,
        4,
        5,
        6,
        7,
        8,
        9,
        10,
        11,
        12,
        13
      ],
      "name": "Geode"
    },
    {
      "mesh": 0,
      "name": "Object_2"
    },
    {
      "mesh": 1,
      "name": "Object_3"
    },
    {
      "mesh": 2,
      "name": "Object_4"
    },
    {
      "mesh": 3,
      "name": "Object_5"
    },
    {
      "mesh": 4,
      "name": "Object_6"
    },
    {
      "mesh": 5,
      "name": "Object_7"
    },
    {
      "mesh": 6,
      "name": "Object_8"
    },
    {
      "mesh": 7,
      "name": "Object_9"
    },
    {
      "mesh": 8,
      "name": "Object_10"
    },
    {
      "mesh": 9,
      "name": "Object_11"
    },
    {
      "mesh": 10,
      "name": "Object_12"
    },
    {
      "mesh": 11,
      "name": "Object_13"
    }
  ],
  "scene": 0,
  "scenes": [
    {
      "name": "Sketchfab_Scene",
      "nodes": [
        0
      ]
    }
  ]
}
